Coordinates
nRows=10
nColumns=38

# SIMM Motion File Header:
name Coordinates
datacolumns 38
datarows 10
otherdata 1
range 2.70000000000000020000 2.70900000000000010000

Units are S.I. units (second, meters, Newtons, ...)
Angles are in degrees.

endheader
time	pelvis_tilt	pelvis_list	pelvis_rotation	pelvis_tx	pelvis_ty	pelvis_tz	hip_flexion_r	hip_adduction_r	hip_rotation_r	knee_angle_r	ankle_angle_r	subtalar_angle_r	mtp_angle_r	hip_flexion_l	hip_adduction_l	hip_rotation_l	knee_angle_l	ankle_angle_l	subtalar_angle_l	mtp_angle_l	lumbar_extension	lumbar_bending	lumbar_rotation	arm_flex_r	arm_add_r	arm_rot_r	elbow_flex_r	pro_sup_r	wrist_flex_r	wrist_dev_r	arm_flex_l	arm_add_l	arm_rot_l	elbow_flex_l	pro_sup_l	wrist_flex_l	wrist_dev_l
      2.70000000000000020000	      0.88568439502762830000	      6.69754440953403130000	     -0.66543508780794713000	      0.69093257551332188000	      1.00568057559536370000	     -0.29600445399585629000	     24.92877227548616400000	     -5.26084111991847350000	      2.20907742863633730000	    -79.84427843074236400000	      3.76072580109986100000	      0.00000000000024495043	     -0.00000000000027308917	      6.77443242247760670000	     13.82364861795872100000	      6.99121781117562250000	    -31.85220035555067900000	     22.39140655380057500000	     -0.00000000000002449165	     -0.00000000000004173336	    -16.87323805804044600000	    -11.29920369624516900000	     -5.95953613784635920000	    -19.88747536199051400000	    -17.67950657353912500000	     -4.59208845183425480000	     85.73246285503215300000	     69.82325297633724400000	     -0.00000000000001574179	      0.00000000000001795934	     -2.29241011534410030000	    -20.41740848167979300000	     -1.11127110044444800000	     92.38845808600851200000	     97.22569320233402800000	     -0.00000000000001739528	     -0.00000000000000084965
      2.70100000000000010000	      0.86174517609798762000	      6.64615968682670390000	     -0.64331215456234814000	      0.69093177297055253000	      1.00614444163931950000	     -0.29600391402317566000	     25.05980713538122700000	     -5.20079010679796380000	      2.20241130704293610000	    -79.64303784103437100000	      3.83989179509019250000	      0.00000000000024573989	     -0.00000000000027379788	      6.54124487600986270000	     13.76652556645090000000	      7.08902886659393340000	    -31.61682812344764000000	     22.32954670241167600000	     -0.00000000000002441864	     -0.00000000000004189317	    -16.85294116195752100000	    -11.22545528118938500000	     -6.03057056779088980000	    -20.02483960789638900000	    -17.65928979283088700000	     -4.58473190366961260000	     85.75812735477207100000	     69.79538864500557300000	     -0.00000000000001576879	      0.00000000000001808197	     -2.17951082962702400000	    -20.38457250167444500000	     -1.11732408698280540000	     92.56015224888169300000	     97.23162911838119300000	     -0.00000000000001744618	     -0.00000000000000084961
      2.70200000000000000000	      0.83777823739624935000	      6.59277963434333090000	     -0.62164312928640897000	      0.69093523643419785000	      1.00661516652216810000	     -0.29600124810057776000	     25.18821323296332800000	     -5.13827883552881200000	      2.19530254832810860000	    -79.43577375851144500000	      3.91756837032908130000	      0.00000000000024653627	     -0.00000000000027450599	      6.30676923594104900000	     13.70633212009393100000	      7.18612871742277730000	    -31.37865640498617400000	     22.26367287850897400000	     -0.00000000000002436964	     -0.00000000000004199181	    -16.83184626718307400000	    -11.14952565742440900000	     -6.10019587413509790000	    -20.16319467029465800000	    -17.63944595028231500000	     -4.57947264656892280000	     85.78699135345326000000	     69.77232913365442400000	     -0.00000000000001579555	      0.00000000000001820244	     -2.06912349675172270000	    -20.35229268316520600000	     -1.12259244769852650000	     92.73427776985288100000	     97.23303844323170600000	     -0.00000000000001749657	     -0.00000000000000085118
      2.70299999999999980000	      0.81378616721545427000	      6.53740684999588240000	     -0.60042548791624084000	      0.69094288296378092000	      1.00709261178608140000	     -0.29599640254322068000	     25.31398884588713800000	     -5.07331301020088970000	      2.18773985385905380000	    -79.22251877652998100000	      3.99375807717503630000	      0.00000000000024733749	     -0.00000000000027521446	      6.07110428618125560000	     13.64306462870618700000	      7.28243419249661540000	    -31.13784829286583600000	     22.19379331114601700000	     -0.00000000000002434718	     -0.00000000000004204030	    -16.80996775946499300000	    -11.07143210818384700000	     -6.16841538616816360000	    -20.30246960184903700000	    -17.61994563153451000000	     -4.57628039997419480000	     85.81892448285280800000	     69.75400783269584800000	     -0.00000000000001582295	      0.00000000000001832554	     -1.96118681590665790000	    -20.32060716431334800000	     -1.12700720395712990000	     92.91068248828180700000	     97.23002962279180400000	     -0.00000000000001754675	     -0.00000000000000085235
      2.70400000000000020000	      0.78977122219864981000	      6.48004996024853690000	     -0.57965618243158934000	      0.69095462783641681000	      1.00757663788094610000	     -0.29598933017559065000	     25.43713391606947700000	     -5.00590605590133020000	      2.17971460796156790000	    -79.00330690624859600000	      4.06846320596600910000	      0.00000000000024813494	     -0.00000000000027592224	      5.83434903925418440000	     13.57672785316142400000	      7.37786237092332970000	    -30.89456550598772500000	     22.11991725994884600000	     -0.00000000000002431526	     -0.00000000000004210071	    -16.78732070798914200000	    -10.99119748444883800000	     -6.23523558655627050000	    -20.44259328599227400000	    -17.60075932784340900000	     -4.57512204058300400000	     85.85379476259619500000	     69.74034435746813200000	     -0.00000000000001584995	      0.00000000000001844824	     -1.85564061717130400000	    -20.28955297645592300000	     -1.13050367077820210000	     93.08921768066603900000	     97.22271820318879100000	     -0.00000000000001759697	     -0.00000000000000084783
      2.70500000000000010000	      0.76573523466250781000	      6.42072345441878060000	     -0.55933164863408724000	      0.69097038472660244000	      1.00806710415702240000	     -0.29597999030512068000	     25.55765009162294600000	     -4.93607881672570060000	      2.17122094611938320000	    -78.77817351621116900000	      4.14168585882906730000	      0.00000000000024893059	     -0.00000000000027663071	      5.59660265484377990000	     13.50733470589392100000	      7.47233060663672970000	    -30.64896810840167900000	     22.04205486613008300000	     -0.00000000000002426593	     -0.00000000000004216725	    -16.76392072882827800000	    -10.90885002055487100000	     -6.30066608708856530000	    -20.58349455491149300000	    -17.58185757053036400000	     -4.57596171588716060000	     85.89146897395691800000	     69.73124551226628400000	     -0.00000000000001587760	      0.00000000000001857006	     -1.75242607279695890000	    -20.25916600256583400000	     -1.13302150525566070000	     93.26973840182842000000	     97.21122607018496400000	     -0.00000000000001764749	     -0.00000000000000083540
      2.70600000000000000000	      0.74167951999613180000	      6.35944751842860260000	     -0.53944781415072285000	      0.69099006588409695000	      1.00856386884969630000	     -0.29596834869125110000	     25.67554076881847200000	     -4.86385925396788730000	      2.16225582399097060000	    -78.54715527153327100000	      4.21342802147933430000	      0.00000000000024972454	     -0.00000000000027733906	      5.35796435821874170000	     13.43490599149683500000	      7.56575655189376040000	    -30.40121422681569600000	     21.96021698554567100000	     -0.00000000000002422243	     -0.00000000000004224364	    -16.73978384831517400000	    -10.82442315043461200000	     -6.36471960449908550000	    -20.72510230842857500000	    -17.56321106447159500000	     -4.57876095762278370000	     85.93181303372720900000	     69.72660625448790500000	     -0.00000000000001590568	      0.00000000000001869056	     -1.65148590797436890000	    -20.22948093568353700000	     -1.13450475458095610000	     93.45210382589461100000	     97.19568068855882400000	     -0.00000000000001769773	     -0.00000000000000081112
      2.70699999999999990000	      0.71760478401708894000	      6.29624786813193800000	     -0.52000010660227414000	      0.69101358230940957000	      1.00906678905945510000	     -0.29595437750844983000	     25.79081113413203100000	     -4.78928214493317660000	      2.15281908741091590000	    -78.31029007295566700000	      4.28369163501093380000	      0.00000000000025051633	     -0.00000000000027804760	      5.11853335890119080000	     13.35947014828520300000	      7.65805818054383810000	    -30.15145976907672700000	     21.87441504068988600000	     -0.00000000000002417248	     -0.00000000000004232304	    -16.71492636643664700000	    -10.73795532485753600000	     -6.42741193650949420000	    -20.86734563372297300000	    -17.54479082063680200000	     -4.58347879516464920000	     85.97469236827589600000	     69.72631065878663000000	     -0.00000000000001593425	      0.00000000000001881238	     -1.55276461102920500000	    -20.20053123748515100000	     -1.13490190369641030000	     93.63617758690966800000	     97.17621434149461400000	     -0.00000000000001774810	     -0.00000000000000078335
      2.70800000000000020000	      0.69351103036098583000	      6.23115558463072980000	     -0.50098346109668834000	      0.69104084392541543000	      1.00957572072079870000	     -0.29593805530250672000	     25.90346820653825300000	     -4.71238878597118750000	      2.14291354376606070000	    -78.06761699586807900000	      4.35247866763217230000	      0.00000000000025130627	     -0.00000000000027875669	      4.87840877179945220000	     13.28106299416869600000	      7.74915381110309290000	    -29.89985815106641500000	     21.78466087884461900000	     -0.00000000000002414605	     -0.00000000000004241854	    -16.68936472088541500000	    -10.64948983261099100000	     -6.48876193961770740000	    -21.01015392538476300000	    -17.52656828647588900000	     -4.59007186878681230000	     86.01997228700248900000	     69.73023288171084700000	     -0.00000000000001596294	      0.00000000000001893663	     -1.45620864281510070000	    -20.17234909766840200000	     -1.13416592238880920000	     93.82182811837705600000	     97.15296336979480400000	     -0.00000000000001779876	     -0.00000000000000076069
      2.70900000000000010000	      0.66939746664784794000	      6.16420694089788230000	     -0.48239232863265163000	      0.69107175975122925000	      1.01009051853503680000	     -0.29591936693023324000	     26.01352088058043300000	     -4.63322668657831560000	      2.13254503387874860000	    -77.81917622838079800000	      4.41979118647206180000	      0.00000000000025209948	     -0.00000000000027946571	      4.63768953483129030000	     13.19972746372101500000	      7.83896212772175180000	    -29.64656000293133400000	     21.69096657686554900000	     -0.00000000000002410615	     -0.00000000000004256326	    -16.66311534841890600000	    -10.55907461521144300000	     -6.54879150381491380000	    -21.15345700828903500000	    -17.50851547651028300000	     -4.59849454297653180000	     86.06751835841267000000	     69.73823812499438200000	     -0.00000000000001599247	      0.00000000000001905801	     -1.36176664731278320000	    -20.14496539222083600000	     -1.13225431243406670000	     94.00892899261421600000	     97.12606741164877600000	     -0.00000000000001784993	     -0.00000000000000073003
